<svg width="44" height="44" viewBox="0 0 44 44" fill="none" xmlns="http://www.w3.org/2000/svg">
<path d="M9.95263 5.5631C14.829 9.27578 20.0741 16.8035 21.9998 20.8434C23.9257 16.8038 29.1705 9.27571 34.047 5.5631C37.5656 2.88418 43.2665 0.811388 43.2665 7.40713C43.2665 8.72439 42.5218 18.4728 42.085 20.0554C40.5668 25.5577 35.0345 26.9611 30.1134 26.1117C38.7154 27.5964 40.9036 32.5144 36.1778 37.4324C27.2025 46.7727 23.2777 35.0889 22.2716 32.0951C22.0872 31.5463 22.001 31.2895 21.9997 31.5079C21.9984 31.2895 21.9122 31.5463 21.7278 32.0951C20.7221 35.0889 16.7974 46.773 7.8216 37.4324C3.09571 32.5144 5.2839 27.5961 13.8861 26.1117C8.9648 26.9611 3.43238 25.5577 1.91438 20.0554C1.4776 18.4727 0.73291 8.72425 0.73291 7.40713C0.73291 0.811388 6.43399 2.88418 9.95238 5.5631H9.95263Z" fill="#1185FE"/>
</svg>
