<svg width="44" height="44" viewBox="0 0 44 44" fill="none" xmlns="http://www.w3.org/2000/svg">
<path d="M37.2479 7.61847C34.4434 6.33169 31.4361 5.38364 28.2918 4.84066C28.2346 4.83018 28.1774 4.85637 28.1479 4.90874C27.7611 5.59664 27.3327 6.49405 27.0327 7.19942C23.6507 6.69311 20.2862 6.69311 16.9736 7.19942C16.6735 6.47837 16.2296 5.59664 15.8411 4.90874C15.8116 4.85811 15.7544 4.83192 15.6971 4.84066C12.5545 5.38191 9.54719 6.32995 6.74105 7.61847C6.71675 7.62894 6.69593 7.64642 6.68211 7.6691C0.977885 16.1911 -0.584742 24.5036 0.18183 32.7131C0.185299 32.7533 0.207845 32.7917 0.239063 32.8161C4.00255 35.5799 7.64813 37.2578 11.226 38.37C11.2833 38.3874 11.3439 38.3665 11.3804 38.3193C12.2267 37.1635 12.9812 35.9449 13.628 34.6633C13.6662 34.5882 13.6298 34.4992 13.5518 34.4695C12.3551 34.0156 11.2156 33.4621 10.1195 32.8336C10.0328 32.7829 10.0259 32.6589 10.1056 32.5996C10.3363 32.4267 10.567 32.2469 10.7873 32.0653C10.8271 32.0322 10.8826 32.0252 10.9295 32.0461C18.1304 35.3338 25.9262 35.3338 33.0421 32.0461C33.0889 32.0234 33.1445 32.0304 33.186 32.0636C33.4064 32.2451 33.637 32.4267 33.8694 32.5996C33.9492 32.6589 33.944 32.7829 33.8573 32.8336C32.7612 33.4743 31.6217 34.0156 30.4233 34.4678C30.3452 34.4975 30.3105 34.5882 30.3487 34.6633C31.0095 35.9431 31.7639 37.1618 32.5946 38.3176C32.6293 38.3665 32.6918 38.3874 32.749 38.37C36.3442 37.2578 39.9898 35.5799 43.7533 32.8161C43.7863 32.7917 43.8071 32.755 43.8106 32.7148C44.728 23.2238 42.2739 14.9794 37.3051 7.67084C37.2929 7.64642 37.2722 7.62894 37.2479 7.61847ZM14.7034 27.7144C12.5354 27.7144 10.7491 25.724 10.7491 23.2797C10.7491 20.8353 12.5008 18.845 14.7034 18.845C16.9233 18.845 18.6923 20.8528 18.6576 23.2797C18.6576 25.724 16.9059 27.7144 14.7034 27.7144ZM29.3237 27.7144C27.1558 27.7144 25.3695 25.724 25.3695 23.2797C25.3695 20.8353 27.1211 18.845 29.3237 18.845C31.5437 18.845 33.3126 20.8528 33.278 23.2797C33.278 25.724 31.5437 27.7144 29.3237 27.7144Z" fill="#5865F2"/>
</svg>
